# xmcd
#
# Track frame offsets:
#	150
#	16857
#	28350
#	38410
#	52212
#	68042
#	79537
#	92170
#	102602
#	121882
#	134190
#	145127
#	154052
#	162970
#	174590
#	188380
#	207800
#	222020
#	237837
#	250495
#	265347
#	278595
#	288570
#
# Disc length: 4045 seconds
#
# Revision: 2
# Processed by: cddbd v1.5PL3 Copyright (c) Steve Scherf et al.
# Submitted via: CDmax 2.0
#
DISCID=4d0fcb17
DTITLE=Flying Burrito Brothers - The Masters
DYEAR=1998
DGENRE=Country
TTITLE0=She Belongs To Everyone But Me
TTITLE1=Somewhere Tonight
TTITLE2=Baby, How'd We Ever Get This Way
TTITLE3=Too Much Honky Tonkin'
TTITLE4=Midnight Magic Woman
TTITLE5=My Abandoned Heart
TTITLE6=She's a Friend of a Friend
TTITLE7=Louisiana
TTITLE8=Cheating Kind of Love
TTITLE9=Why Must the Ending Always Be So Sad
TTITLE10=That's When You Know It's Over
TTITLE11=You
TTITLE12=I Swear I Don't Miss Her Anymore
TTITLE13=She's a Hell of a Deal
TTITLE14=Another Shade of Grey
TTITLE15=Damned If I'll Be Lonely Tonight
TTITLE16=If Something Should Come Between Us
TTITLE17=When You're Giving Yourself To a Stranger
TTITLE18=Run To the Night
TTITLE19=Coast To Coast
TTITLE20=Closer To You
TTITLE21=True Love Never Runs Dry
TTITLE22=Tell Me It Ain't So
EXTD=LABEL =Eagle Records\nID =eabcd079 [also =gas0000079eab]\nUPC =50345
EXTD=04-407923\nCOPYRIGHT =1998\n*****\nEagle Records EAB CD 079 - GAS 00000
EXTD=79 EAB
EXTT0=
EXTT1=
EXTT2=
EXTT3=
EXTT4=
EXTT5=
EXTT6=
EXTT7=
EXTT8=
EXTT9=
EXTT10=
EXTT11=
EXTT12=
EXTT13=
EXTT14=
EXTT15=
EXTT16=
EXTT17=
EXTT18=
EXTT19=
EXTT20=
EXTT21=
EXTT22=
PLAYORDER=
